# xmcd
#
# Track frame offsets: 
#        150
#        6373
#        9086
#        15065
#        22005
#        26869
#        31460
#        37415
#        40172
#        45809
#        52030
#        65584
#        68695
#        84399
#        99517
#        121223
#        129654
#        150798
#        159628
#        162646
#        174446
#        195283
#        216145
#        237202
#        243499
#        251974
#        265036
#        276062
#        295480
#        310063
#        333086
#        344750
#
# Disc length: 4760 seconds
#
# Revision: 0
# Processed by: cddbd v1.5.2PL0 Copyright (c) Steve Scherf et al.
# Submitted via: ExactAudioCopy v0.95b3
#
DISCID=b5129620
DTITLE=The Beatles  - Sgt Pepper Deluxe - 08 - Disc 5 - mixes
DYEAR=1900
DGENRE=
TTITLE0=Strawberry Fields Forever - take 1 (monitor mix)
TTITLE1=Strawberry Fields Forever - take 7 (monitor mix)
TTITLE2=Strawberry Fields Forever - take 26 (monitor mix)
TTITLE3=Sgt. Pepper´s Lonely Hearts Club Band (monitor mix)
TTITLE4=Lucy In The Sky With Diamonds  (monitor mix)
TTITLE5=Being For The Benefit Of Mr. Kite (monitor mix)
TTITLE6=Within You, Without You (monitor mix)
TTITLE7=Good Morning, Good Morning  (monitor mix)
TTITLE8=A Day In The Life - take 1 (monitor mix a)
TTITLE9=A Day In The Life - take 1 (monitor mix b)
TTITLE10=A Day In The Life - take 6 (monitor mix)
TTITLE11=A Day In The Life - orchestra (monitor mix)
TTITLE12=Penny Lane - RM9
TTITLE13=Penny Lane - RM10
TTITLE14=A Day In The Life - RS 1
TTITLE15=A Day In The Life - RS 2
TTITLE16=A Day In The Life - RS 3
TTITLE17=A Day In The Life - RS 4
TTITLE18=A Day In The Life - RS 5
TTITLE19=A Day In The Life - RS 6
TTITLE20=A Day In The Life - RS 7
TTITLE21=A Day In The Life - RS 8
TTITLE22=A Day In The Life - RS 9
TTITLE23=Strawberry Fields Forever - take 1- arvs mix fragment
TTITLE24=Strawberry Fields Forever - take 7- arvs mix fragment
TTITLE25=Strawberry Fields Forever -  take 26 - arvs mix fragment
TTITLE26=Strawberry Fields Forever - take 1 (ant DVD mix)
TTITLE27=Strawberry Fields Forever take 7 RM3 and take 25 (ant mix)
TTITLE28=Penny Lane - RS95 (ant mix)
TTITLE29=A Day In The Life (ant mix)
TTITLE30=Being For The Benefit Of Mr Kite! - take 7
TTITLE31=Only A Northern Song (ant mix)
EXTD=
EXTT0=
EXTT1=
EXTT2=
EXTT3=
EXTT4=
EXTT5=
EXTT6=
EXTT7=
EXTT8=
EXTT9=
EXTT10=
EXTT11=
EXTT12=
EXTT13=
EXTT14=
EXTT15=
EXTT16=
EXTT17=
EXTT18=
EXTT19=
EXTT20=
EXTT21=
EXTT22=
EXTT23=
EXTT24=
EXTT25=
EXTT26=
EXTT27=
EXTT28=
EXTT29=
EXTT30=
EXTT31=
PLAYORDER=
